<svg xmlns="http://www.w3.org/2000/svg" viewBox="0 0 430.11 430.11">
    <circle cx="215.06" cy="215.06" r="215.06" fill="#ef4f29"/>
    <path d="M142.66,320V127.16h74.62q42.42,0,55.3,2.89a61.91,61.91,0,0,1,33.15,18.87q13.35,14.53,13.35,37.55,0,17.76-7.7,29.86a56.94,56.94,0,0,1-19.56,19,74.33,74.33,0,0,1-24.12,9.14q-16.66,2.76-48.23,2.76H189.16V320Zm46.5-160.2V214.5h25.45q27.49,0,36.76-3A30.36,30.36,0,0,0,265.9,202a23,23,0,0,0,5.26-15,22.64,22.64,0,0,0-7.38-17.36,34.32,34.32,0,0,0-18.7-8.55q-8.33-1.31-33.46-1.31Z" fill="#fff"/>
</svg>
