<svg xmlns="http://www.w3.org/2000/svg" viewBox="0 0 430.12 430.12">
    <circle cx="215.06" cy="215.06" r="215.06" fill="#409de2" stroke-miterlimit="10"/>
    <path id="Twitter_alt_" data-name="Twitter (alt)" d="M324.69,204.24c15.92-1.31,26.72-8.55,30.88-18.37-5.74,3.53-23.57,7.38-33.42,3.71-.48-2.31-1-4.51-1.55-6.5-7.5-27.55-33.19-49.75-60.11-47.06,2.18-.88,4.39-1.7,6.59-2.43,3-1.06,20.35-3.89,17.61-10-2.31-5.4-23.55,4.08-27.54,5.32,5.28-2,14-5.4,14.94-11.47a42.16,42.16,0,0,0-22.16,10.49,15.24,15.24,0,0,0,4.25-8.42C232.61,133.26,220,161,209.81,188c-8-7.76-15.1-13.87-21.47-17.26-17.86-9.58-39.22-19.57-72.74-32-1,11.09,5.49,25.84,24.26,35.65-4.07-.54-11.5.67-17.45,2.09,2.42,12.71,10.33,23.17,31.75,28.24-9.79.65-14.85,2.87-19.43,7.67,4.46,8.84,15.34,19.24,34.9,17.1-21.76,9.38-8.87,26.74,8.83,24.15-30.2,31.19-77.81,28.9-105.15,2.81C144.69,353.7,299.86,314,323,220.27c17.33.15,27.51-6,33.83-12.78C346.83,209.18,332.36,207.43,324.69,204.24Z" fill="#fff"/>
</svg>
