<svg id="Layer_1" data-name="Layer 1" xmlns="http://www.w3.org/2000/svg" viewBox="0 0 176.02 52.91">
    <defs><style>.cls-1{fill:#603cfb}</style></defs>
    <path class="cls-1" d="M36.32 22.7h-3.84v-2.56h10.44v2.56h-3.83v10h-2.77v-10zm8.12-2.56h2.77v5h5.11v-5h2.78v12.6h-2.78v-5.05h-5.11v5.06h-2.77V20.14zm13.38 0h9.51v2.47h-6.75v2.56h5.94v2.47h-5.94v2.65h6.84v2.47h-9.6V20.14zm15 6.34a6.41 6.41 0 0 1 6.57-6.52 6.5 6.5 0 0 1 5 1.94l-1.76 2a4.65 4.65 0 0 0-3.22-1.42 3.73 3.73 0 0 0-3.66 3.92 3.74 3.74 0 0 0 3.66 4 4.55 4.55 0 0 0 3.31-1.48l1.76 1.78A6.44 6.44 0 0 1 79.3 33a6.36 6.36 0 0 1-6.47-6.52zm13.29-6.34h2.79v5H94v-5h2.77v12.6H94v-5.05h-5.1v5.06h-2.77V20.14zm17.48-.09h2.56l5.4 12.69h-2.9l-1.15-2.83h-5.33L101 32.75h-2.79zm2.92 7.42l-1.67-4.09-1.67 4.09h3.35zm7.92-4.77h-3.83v-2.56h10.44v2.56h-3.83v10h-2.77v-10zm11.38 8.21l1.64-2a5.78 5.78 0 0 0 3.76 1.53c1.13 0 1.82-.45 1.82-1.19 0-.7-.43-1.06-2.54-1.6-2.54-.65-4.18-1.35-4.18-3.85 0-2.29 1.84-3.8 4.41-3.8a7.3 7.3 0 0 1 4.68 1.6l-1.4 2.05a5.91 5.91 0 0 0-3.28-1.24c-1.06 0-1.62.49-1.62 1.1 0 .83.54 1.1 2.72 1.66 2.56.67 4 1.58 4 3.78 0 2.5-1.91 3.91-4.63 3.91a8 8 0 0 1-5.37-1.95zm12-10.77h2.77v5h5.11v-5h2.77v12.6h-2.77v-5.05h-5.11v5.06h-2.77V20.14zm12.74 6.34a6.7 6.7 0 0 1 13.4 0 6.7 6.7 0 0 1-13.35 0zm10.5 0a3.83 3.83 0 0 0-3.82-4 3.77 3.77 0 0 0-3.78 3.92 3.83 3.83 0 0 0 3.82 4 3.77 3.77 0 0 0 3.82-3.92zm5-6.34h5.15c3 0 4.83 1.78 4.83 4.36 0 2.92-2.27 4.43-5.1 4.43h-2.11v3.78H166V20.14zm5 6.36a2 2 0 0 0 2.2-1.91c0-1.24-.86-1.91-2.25-1.91h-2.14v3.82H171zM44.46 42.16a23.84 23.84 0 0 1-31.41 4.08l-3 .91-2.83.85.59-2.8.64-3a24 24 0 0 1-2.08-2.8 23.89 23.89 0 0 1 38.07-28.66l1.81-1.81a26.44 26.44 0 0 0-40.63 33.8l-1.56 6.95L6 51.33l6.73-2.26A26.4 26.4 0 0 0 46.26 44z">
    </path>
</svg>
