<svg xmlns="http://www.w3.org/2000/svg" viewBox="0 0 200 200">
	<g>
		<path d="M167.3,56.18c-12.87,0-25.68,0-38.49,0-1.75,0-2.32-1.24-3.19-2.27C117,43.69,106,39.55,93.1,42.6c-12.3,2.9-20.41,11-23.71,23.26A32.09,32.09,0,0,0,126,93.27c.85-1.12,1.41-2.15,3.17-2.13,11.81.09,23.62,0,35.43,0h2.68c-5.34,26.19-33.06,56.35-74.55,52.46a69.52,69.52,0,0,1-63-67.2A70,70,0,0,1,89.81,4.25C131.46-1.4,161.55,28.7,167.3,56.18Z" style="fill: #313650"/>
		<rect x="29.74" y="161.18" width="140.05" height="35.8" style="fill: #57a4f7"/>
	</g>
</svg>
