<svg xmlns="http://www.w3.org/2000/svg" viewBox="0 0 200 200">
  <g>
    <path d="M45,154.75a3.14,3.14,0,0,1-3.14-3.15l0-19.13H21.1c-12.79,0-18-5.22-18-18V66.57c0-12.79,5.22-18,18-18H179.84c14.19,0,17,6.6,17,18v47.89c0,12.79-5.22,18-18,18H90.3L46.37,154.42a3.15,3.15,0,0,1-1.4.33Z" style="fill: #fff"/>
    <path d="M19.43,53.83c-9.52,0-12,2.46-12,12v48.93c0,9.52,2.46,12,12,12H43.86a3.21,3.21,0,0,1,3.21,3.22l0,17.55,40.91-20.43a3.22,3.22,0,0,1,1.44-.34h91.15c9.52,0,12-2.46,12-12V65.81c0-5.17-.62-8.16-2-9.72-.86-1-2.72-2.26-8.92-2.26ZM43.8,155.89a3.21,3.21,0,0,1-3.21-3.22l0-19.54H19.43c-13.07,0-18.4-5.33-18.4-18.4V65.81c0-13.07,5.33-18.4,18.4-18.4H181.59c14.5,0,17.33,6.75,17.33,18.4v48.93c0,13.07-5.33,18.4-18.4,18.4H90.12L45.24,155.56a3.22,3.22,0,0,1-1.43.34Z" style="fill: #323537"/>
    <path d="M76.18,92.81a6.73,6.73,0,0,1,1.49-4,4.65,4.65,0,0,1,3.66-1.4,4,4,0,0,1,3.3,1.48,6.48,6.48,0,0,1,1.28,3.88Zm15.45-3.28a11.09,11.09,0,0,0-2.14-3.93A10.21,10.21,0,0,0,86,83a10.74,10.74,0,0,0-4.62-1,11.91,11.91,0,0,0-5.22,1.08,10.87,10.87,0,0,0-3.75,2.93,12.67,12.67,0,0,0-2.29,4.36,18.14,18.14,0,0,0-.77,5.36,18.33,18.33,0,0,0,.75,5.36,11.28,11.28,0,0,0,2.31,4.23,10.55,10.55,0,0,0,4,2.78,15.86,15.86,0,0,0,5.94,1,22.63,22.63,0,0,0,8.47-1.5,12.82,12.82,0,0,0-.43-3,12,12,0,0,0-.91-2.4,18.43,18.43,0,0,1-3.25.92,17.88,17.88,0,0,1-3.34.33,7.9,7.9,0,0,1-4.81-1.35,5.53,5.53,0,0,1-2-4.36h16q.1-.55.17-1.48t.07-1.88a16.09,16.09,0,0,0-.72-4.88ZM67.83,82.4c-.63,0-1.18-.05-1.66-.05s-1.22,0-1.83.08-1.19.13-1.73.23l-5.34,19.28L51.83,82.65A9.59,9.59,0,0,0,50,82.4c-.64,0-1.28-.05-1.93-.05-.48,0-1.05,0-1.71.05a13.38,13.38,0,0,0-2.14.3l9.29,25.79a9.44,9.44,0,0,0,1.73.25c.61,0,1.16,0,1.64,0s1,0,1.68,0a17,17,0,0,0,1.93-.2L70,82.7a14.44,14.44,0,0,0-2.14-.3Zm-30.2-3.91q1,0,1.73,0t1.76,0a13.6,13.6,0,0,0,1.76-.2,15.56,15.56,0,0,0,.19-1.7q0-.85,0-1.65t0-1.68a15.66,15.66,0,0,0-.19-1.68,17.51,17.51,0,0,0-1.78-.23q-1-.08-1.78-.08t-1.71.08a17.55,17.55,0,0,0-1.76.23,20.62,20.62,0,0,0-.29,3.36,20,20,0,0,0,.29,3.36,13.63,13.63,0,0,0,1.78.2ZM33.35,85.3q0,.65.07,1.38a11.57,11.57,0,0,0,.22,1.38h3.22v20.48a19.42,19.42,0,0,0,3.32.3,19.68,19.68,0,0,0,3.37-.3V82.65H33.63a12.2,12.2,0,0,0-.29,2.65Zm.24,16.93h-12V72.53a21.7,21.7,0,0,0-3.51-.3,20.56,20.56,0,0,0-3.42.3v36H33.59a15.37,15.37,0,0,0,.19-1.63c0-.52,0-1,0-1.58s0-1,0-1.48a15.37,15.37,0,0,0-.19-1.63Z" style="fill: #323537;fill-rule: evenodd"/>
    <path d="M183.47,104.81a10.19,10.19,0,0,0-.48-2l-1.23.22a8,8,0,0,1-1.42.13,5.66,5.66,0,0,1-1.59-.2,2.31,2.31,0,0,1-1.13-.75,3.75,3.75,0,0,1-.7-1.5,10.44,10.44,0,0,1-.24-2.5V88.06h5.82a14.41,14.41,0,0,0,.19-1.45q0-.65,0-1.35t0-1.25a12.81,12.81,0,0,0-.19-1.35h-5.82V75.08h-1.11l-9,12,.24,1h3.13V99.77q0,4.81,2.31,6.94t6.69,2.13a18.9,18.9,0,0,0,4.57-.55q0-.35.07-.73c0-.25,0-.56,0-.93a13,13,0,0,0-.14-1.83Zm-24-1.53-1.25.22a8.47,8.47,0,0,1-1.44.13q-.63,0-1.47-.08a5.07,5.07,0,0,1-1.59-.4,3.15,3.15,0,0,1-1.28-1,3.27,3.27,0,0,1-.53-2,3.1,3.1,0,0,1,1.37-2.83,6.87,6.87,0,0,1,3.73-.88,11.17,11.17,0,0,1,1.21.08q.67.08,1.25.18v6.61Zm-4-21.23a24.39,24.39,0,0,0-3.95.35,24.82,24.82,0,0,0-4.23,1.1,9.82,9.82,0,0,0,.34,2.75,13.68,13.68,0,0,0,1,2.45,16.43,16.43,0,0,1,5.53-1.05,14.61,14.61,0,0,1,2.19.15,4.3,4.3,0,0,1,1.66.58,3,3,0,0,1,1.06,1.18,4.29,4.29,0,0,1,.39,2v.6q-1.69-.15-3.08-.15a17.79,17.79,0,0,0-3.85.43,11,11,0,0,0-3.49,1.4,7.76,7.76,0,0,0-2.55,2.6,7.64,7.64,0,0,0-1,4,9.32,9.32,0,0,0,.79,4.06,7,7,0,0,0,2.26,2.7,9.42,9.42,0,0,0,3.51,1.5,20.85,20.85,0,0,0,4.5.45,26.87,26.87,0,0,0,5.44-.5,38.63,38.63,0,0,0,4.09-1.05v-15q0-5.51-2.82-8T155.46,82Zm-20.17,0a7.92,7.92,0,0,0-4.62,1.38,7.83,7.83,0,0,0-1.37,1.2q-.56.63-.89,1.08V71.93a15.26,15.26,0,0,0-1.73-.2c-.58,0-1.14-.05-1.69-.05s-1.11,0-1.68.05a13.73,13.73,0,0,0-1.69.2v36.66a15.27,15.27,0,0,0,1.71.2q.84.05,1.66.05c.55,0,1.11,0,1.69-.05a15.15,15.15,0,0,0,1.73-.2V95a10.46,10.46,0,0,1,.46-3.41,5.54,5.54,0,0,1,1.15-2,3.53,3.53,0,0,1,1.57-1,6.09,6.09,0,0,1,1.69-.25,2.94,2.94,0,0,1,2.79,1.45,8.59,8.59,0,0,1,.82,4.16v14.67a15.28,15.28,0,0,0,1.73.2q.87.05,1.68.05c.55,0,1.11,0,1.69-.05a15.24,15.24,0,0,0,1.73-.2V92q0-5.16-2.14-7.56a8,8,0,0,0-6.28-2.4Zm-17.57,19.68a20.2,20.2,0,0,1-3,.85,17.35,17.35,0,0,1-3.13.25q-10,0-10-12.22,0-6.16,2.48-9.29a8.53,8.53,0,0,1,7.1-3.13,16.56,16.56,0,0,1,3.08.25,20.81,20.81,0,0,1,3,.85q.58-1.45,1.06-2.88a11.45,11.45,0,0,0,.58-2.93,18.13,18.13,0,0,0-4.21-1.25,28.08,28.08,0,0,0-4.26-.3,16.49,16.49,0,0,0-7,1.4,14.49,14.49,0,0,0-5.15,3.91,17.54,17.54,0,0,0-3.2,5.93A24.12,24.12,0,0,0,94,90.61,24.82,24.82,0,0,0,95,98a16.64,16.64,0,0,0,3.15,5.88,14.32,14.32,0,0,0,5.17,3.86,17.45,17.45,0,0,0,7.17,1.38,28.87,28.87,0,0,0,4.31-.3,22.06,22.06,0,0,0,4.5-1.25,21.48,21.48,0,0,0-.6-3,20.27,20.27,0,0,0-1-2.88Z" style="fill: #d17041;fill-rule: evenodd"/>
  </g>
</svg>
