<svg xmlns="http://www.w3.org/2000/svg" viewBox="0 0 200 200">
  <g>
    <path d="M129.29,13.73A17.66,17.66,0,1,0,95.68,24.6L141.3,164.86a17.61,17.61,0,0,0,21.43,10.88c9.42-2.76,15.1-12.66,12-21.75C174.74,153.66,129.29,13.73,129.29,13.73Z" style="fill: #ecb32d"/>
    <path d="M58.67,36.62a17.66,17.66,0,0,0-33.6,10.88L70.68,187.75a17.61,17.61,0,0,0,21.43,10.88c9.42-2.76,15.1-12.66,12-21.75C104.12,176.55,58.67,36.62,58.67,36.62Z" style="fill: #63c1a0"/>
    <path d="M186.75,129.8a17.66,17.66,0,0,0-10.88-33.6L35.46,142A17.61,17.61,0,0,0,24.58,163.4c2.76,9.42,12.66,15.1,21.75,12C46.66,175.41,186.75,129.8,186.75,129.8Z" style="fill: #e01a59"/>
    <path d="M64.68,169.57c9.09-2.92,20.94-6.82,33.6-10.88-2.92-9.09-6.82-20.94-10.88-33.6L53.8,136Z" style="fill: #331433"/>
    <path d="M135.46,146.52c12.66-4.06,24.51-8,33.6-10.88-2.92-9.09-6.82-20.94-10.88-33.6l-33.6,10.88Z" style="fill: #d62027"/>
    <path d="M163.7,59.18a17.66,17.66,0,0,0-10.88-33.6L12.57,71.19A17.61,17.61,0,0,0,1.69,92.62c2.76,9.42,12.66,15.1,21.75,12C23.77,104.64,163.7,59.18,163.7,59.18Z" style="fill: #89d3df"/>
    <path d="M41.79,98.79c9.09-2.92,20.94-6.82,33.6-10.88-4.06-12.66-8-24.51-10.88-33.6L30.91,65.19Z" style="fill: #258b74"/>
    <path d="M112.4,75.9c12.66-4.06,24.51-8,33.6-10.88-4.06-12.66-8-24.51-10.88-33.6L101.53,42.3Z" style="fill: #819c3c"/>
  </g>
</svg>
