<svg xmlns="http://www.w3.org/2000/svg" viewBox="0 0 20 20">
    <path d="M9.95.88A8.57,8.57,0,0,0,1.2,9.27h0a8.18,8.18,0,0,0,2.51,5.87c.43.42,0,3,.46,3.28s2-1.57,2.51-1.37a8.55,8.55,0,0,0,3.27.6A8.57,8.57,0,0,0,18.7,9.27,8.57,8.57,0,0,0,10,.88ZM6.48,6.29h6.2a.5.5,0,0,1,0,1H6.48a.56.56,0,0,1-.5-.6A.46.46,0,0,1,6.48,6.29Zm5,6.2H6.38a.5.5,0,0,1-.5-.6.66.66,0,0,1,.5-.4h5a.66.66,0,0,1,.5.4C12.08,12.19,11.78,12.49,11.48,12.49Zm2.9-2.6H6.48a.6.6,0,0,1-.4-.1.66.66,0,0,1-.1-.6c0-.2.2-.3.4-.3h8a.51.51,0,0,1,.5.4C15,9.49,14.68,9.89,14.38,9.89Z" fill="#189aff"/>
</svg>
