<svg id="Layer_1" data-name="Layer 1" xmlns="http://www.w3.org/2000/svg" viewBox="0 0 291.32 291.32">
  <title>youtube</title>
  <g>
    <path d="M145.66,0A145.66,145.66,0,1,1,0,145.66,145.66,145.66,0,0,1,145.66,0Z" fill="#c4302b"/>
    <path d="M142.15,118.36A17.15,17.15,0,0,0,153,114.81a10.39,10.39,0,0,0,3.93-8.6V84.12a9.7,9.7,0,0,0-4-8A16.42,16.42,0,0,0,142.6,73c-4.6,0-8.27,1-11,2.93a9.25,9.25,0,0,0-4.1,7.91V106a10.58,10.58,0,0,0,4,8.68A16.58,16.58,0,0,0,142.15,118.36Zm-4.82-33.42a2.36,2.36,0,0,1,1.3-2,6.57,6.57,0,0,1,3.39-.77,7.42,7.42,0,0,1,3.65.77,2.34,2.34,0,0,1,1.38,2v21a2.78,2.78,0,0,1-1.37,2.45,6.73,6.73,0,0,1-3.67.88,5.85,5.85,0,0,1-3.48-.87,2.85,2.85,0,0,1-1.21-2.46Zm35.29,33.39c1.62,0,3.27-.93,5-1.86a18.63,18.63,0,0,0,5-4.13v4.91h8.6V73h-8.6v33.62a12.2,12.2,0,0,1-2.65,2.38,4.88,4.88,0,0,1-2.4.94,2,2,0,0,1-1.75-.71,3.68,3.68,0,0,1-.56-2.26V73h-8.59v37a9.76,9.76,0,0,0,1.51,5.93A5.65,5.65,0,0,0,172.63,118.33Zm25,18.31h-104c-16.53,0-29.92,12.88-29.92,28.75V189.7c0,15.88,13.39,28.76,29.92,28.76h104c16.52,0,29.92-12.88,29.92-28.76V165.39C227.57,149.52,214.16,136.64,197.64,136.64Zm-88.5,24.67H99.95v38.07H91.06V161.31H81.86v-6.49h27.28Zm27.44,38.6H127v-4a20.47,20.47,0,0,1-5.54,3.32,14.54,14.54,0,0,1-5.56,1.16,7,7,0,0,1-5-1.62A6.37,6.37,0,0,1,109.2,194V163.95h9.59v27.57a2.5,2.5,0,0,0,.58,1.84,2.83,2.83,0,0,0,2,.56,6.61,6.61,0,0,0,2.68-.76,12.29,12.29,0,0,0,3-1.93v-27.3h9.59Zm36.29-6.85a6.72,6.72,0,0,1-2.23,5.42c-1.47,1.26-3.63,1.88-6.43,1.88a15.63,15.63,0,0,1-5-.72,12.48,12.48,0,0,1-4.05-2.26v2.55h-9.57V154.82h9.57v14.54a15.58,15.58,0,0,1,4.06-2.31,12.46,12.46,0,0,1,4.37-.79q4.49,0,6.85,2.11a7.92,7.92,0,0,1,2.38,6.23Zm36.47-10.15H191.68v6.5a5.9,5.9,0,0,0,.9,3.78,4,4,0,0,0,3.13,1,4.59,4.59,0,0,0,3.22-.89c.6-.6.93-1.9.93-3.94v-1.57h9.49v1.77c0,3.53-1.14,6.19-3.49,8s-5.77,2.68-10.37,2.68q-6.21,0-9.78-2.84a9.45,9.45,0,0,1-3.57-7.81V174.12a8.67,8.67,0,0,1,3.93-7.32A16.89,16.89,0,0,1,196.2,164q6.34,0,9.75,2.61a8.9,8.9,0,0,1,3.4,7.51ZM104,118.46h10.86V92L127.5,54.67h-11l-6.72,25.51H109l-7-25.51H91L104,93.19Zm55.17,53.07-2,.33-2,1v20.74a8.34,8.34,0,0,0,2.25,1.17l2.29.35a3.79,3.79,0,0,0,2.56-.71,2.87,2.87,0,0,0,.82-2.28V175a3.16,3.16,0,0,0-1-2.56A4.49,4.49,0,0,0,159.16,171.53Z" fill="#fff"/>
    <path d="M196.22,170a4.38,4.38,0,0,0-3.17.95,4.17,4.17,0,0,0-.95,3.1v3.48h8.17v-3.48a3.48,3.48,0,0,0-4.05-4Z" fill="#fff"/>
  </g>
</svg>
