<svg xmlns="http://www.w3.org/2000/svg" viewBox="0 0 31.01 22.05">
  <g id="Page-1" style="opacity: 0.4717504382133484">
    <g id="mail">
      <g id="Group">
        <path id="Shape" d="M25.11,17.51a.5.5,0,0,1-.34-.14L19,12a.5.5,0,1,1,.69-.73l5.75,5.4a.5.5,0,0,1-.34.86Z" transform="translate(0 -0.48)"/>
        <path id="Shape-2" data-name="Shape" d="M5.9,17.51a.5.5,0,0,1-.34-.86l5.76-5.4A.5.5,0,1,1,12,12l-5.76,5.4A.5.5,0,0,1,5.9,17.51Z" transform="translate(0 -0.48)"/>
      </g>
      <path id="Shape-3" data-name="Shape" d="M28.51,22.53H2.5A2.5,2.5,0,0,1,0,20V3A2.5,2.5,0,0,1,2.5.48h26A2.5,2.5,0,0,1,31,3V20A2.5,2.5,0,0,1,28.51,22.53Zm-26-21A1.5,1.5,0,0,0,1,3V20a1.5,1.5,0,0,0,1.5,1.5h26A1.5,1.5,0,0,0,30,20V3a1.5,1.5,0,0,0-1.5-1.5Z" transform="translate(0 -0.48)"/>
      <path id="Shape-4" data-name="Shape" d="M15.51,14a2.8,2.8,0,0,1-1.84-.66L.83,2.15a.5.5,0,1,1,.66-.75L14.33,12.6a1.87,1.87,0,0,0,2.36,0L29.51,1.42a.5.5,0,1,1,.66.75L17.34,13.35A2.79,2.79,0,0,1,15.51,14Z" transform="translate(0 -0.48)"/>
    </g>
  </g>
</svg>
