<svg fill="#9fb1be" xmlns="http://www.w3.org/2000/svg" viewBox="0 0 438.28 438.28">
  <path d="M428.76,300.1a17.72,17.72,0,0,0-5-9.71q-8.85-8.85-20.55-3.72a154.66,154.66,0,0,1-143-6.28,154.8,154.8,0,0,1-56.52-56.53,151.78,151.78,0,0,1-20.84-77.95,152.57,152.57,0,0,1,50.53-114.2q9.42-8.85,4.29-20.56Q232.76-.54,220.2,0a218.22,218.22,0,0,0-82.8,19.56q-39.11,17.84-67.24,47T25.63,135.5A217.07,217.07,0,0,0,9.21,219a213.34,213.34,0,0,0,17.42,85.08Q44,344.63,73.45,374t70,46.82a213.37,213.37,0,0,0,85.07,17.42q64,0,118.05-34.69t80.94-92.64A18.26,18.26,0,0,0,428.76,300.1ZM306.57,384.17a179.72,179.72,0,0,1-78.09,17.56,177.65,177.65,0,0,1-70.95-14.56q-33.83-14.56-58.25-39T60.32,290A177.62,177.62,0,0,1,45.75,219q0-61.38,36.4-109.64T175.95,44Q146.25,91.1,146.25,145.92A191.45,191.45,0,0,0,241.9,312.09a188.26,188.26,0,0,0,96.21,25.69,190.56,190.56,0,0,0,31.41-2.57A182,182,0,0,1,306.57,384.17Z"/>
</svg>
