<svg class="_logo" xmlns="http://www.w3.org/2000/svg" viewBox="0 0 208.17 30.36">
    <polyline style="fill:none;stroke:#0084ff;stroke-width:3;stroke-miterlimit:10;" points="43.3,10.1 36.4,17.8 30.2,10.1 23.9,17.9
	17,10.2 11.3,17.9 3.9,10.5 "/>
    <g>
        <path style="fill:#0084ff;" d="M70.1,14.3c0.7,0.9,1,2.1,1,3.4c0,1.9-0.7,3.3-2,4.4s-3.2,1.6-5.5,1.6h-8c-0.6,0-1.1-0.2-1.4-0.5
		c-0.3-0.3-0.5-0.8-0.5-1.4V3.7c0-0.6,0.2-1.1,0.5-1.4C54.5,2,55,1.8,55.6,1.8h7.7c2.3,0,4.1,0.5,5.3,1.5c1.3,1,1.9,2.4,1.9,4.2
		c0,1.2-0.3,2.2-0.9,3c-0.6,0.8-1.5,1.5-2.5,1.9C68.4,12.7,69.4,13.4,70.1,14.3z M57.6,11h5.1c2.7,0,4.1-1,4.1-3.1
		c0-1-0.3-1.8-1-2.3c-0.7-0.5-1.7-0.7-3.1-0.7h-5.1V11z M66.3,19.8c0.7-0.5,1-1.3,1-2.4c0-1.1-0.3-1.9-1-2.4
		c-0.7-0.5-1.7-0.8-3.1-0.8h-5.6v6.4h5.6C64.6,20.6,65.7,20.3,66.3,19.8z"/>
        <path style="fill:#0084ff;" d="M77.4,23c-1.2-0.6-2.1-1.6-2.7-2.8c-0.6-1.2-1-2.6-1-4.2c0-1.6,0.3-3,1-4.2c0.6-1.2,1.5-2.1,2.7-2.7
		c1.2-0.6,2.5-1,4.1-1c1.5,0,2.9,0.3,4.1,1s2.1,1.6,2.7,2.7c0.6,1.2,0.9,2.6,0.9,4.2c0,1.6-0.3,3-0.9,4.2c-0.6,1.2-1.5,2.1-2.7,2.8
		s-2.5,1-4.1,1C79.9,23.9,78.5,23.6,77.4,23z M84.3,19.7c0.7-0.8,1-2,1-3.7c0-1.6-0.3-2.8-1-3.6c-0.7-0.8-1.6-1.3-2.9-1.3
		c-1.2,0-2.2,0.4-2.9,1.3c-0.7,0.8-1,2.1-1,3.6c0,1.6,0.3,2.8,1,3.7c0.7,0.8,1.6,1.2,2.9,1.2C82.7,20.9,83.6,20.5,84.3,19.7z"/>
        <path style="fill:#0084ff;" d="M101.7,22.4c0,0.5-0.2,0.9-0.6,1.1c-0.4,0.3-1,0.4-1.7,0.3l-0.8-0.1c-3.5-0.2-5.2-2.1-5.2-5.6v-6.8
		h-1.5c-0.6,0-1-0.1-1.3-0.4S90,10.4,90,10c0-0.5,0.1-0.8,0.4-1.1s0.7-0.4,1.3-0.4h1.5V5.7c0-0.6,0.2-1,0.5-1.3
		c0.4-0.3,0.8-0.5,1.4-0.5c0.6,0,1,0.2,1.4,0.5c0.4,0.3,0.5,0.8,0.5,1.3v2.9h2.6c0.6,0,1,0.1,1.3,0.4c0.3,0.2,0.5,0.6,0.5,1.1
		c0,0.5-0.2,0.8-0.5,1.1c-0.3,0.2-0.7,0.4-1.3,0.4h-2.6v7c0,1.5,0.7,2.3,2.1,2.4l0.8,0.1C101.2,21,101.7,21.5,101.7,22.4z"/>
        <path style="fill:#0084ff;" d="M104.5,23.2c-0.3-0.3-0.5-0.8-0.5-1.4V3.7c0-0.6,0.2-1.1,0.5-1.4c0.3-0.3,0.8-0.5,1.4-0.5h11.2
		c0.6,0,1.1,0.1,1.4,0.4c0.3,0.3,0.5,0.7,0.5,1.1c0,0.5-0.2,0.9-0.5,1.2c-0.3,0.3-0.8,0.4-1.4,0.4h-9.2v6h8.6c0.6,0,1.1,0.1,1.4,0.4
		c0.3,0.3,0.5,0.7,0.5,1.2c0,0.5-0.2,0.9-0.5,1.1c-0.3,0.3-0.8,0.4-1.4,0.4h-8.6v6.4h9.2c0.6,0,1.1,0.1,1.4,0.4
		c0.3,0.3,0.5,0.7,0.5,1.2c0,0.5-0.2,0.9-0.5,1.1c-0.3,0.3-0.8,0.4-1.4,0.4H106C105.4,23.7,104.9,23.5,104.5,23.2z"/>
        <path style="fill:#0084ff;" d="M134.8,9.7c0.9,1,1.3,2.6,1.3,4.7V22c0,0.6-0.2,1-0.5,1.4c-0.3,0.3-0.8,0.5-1.4,0.5
		s-1.1-0.2-1.4-0.5c-0.4-0.3-0.5-0.8-0.5-1.4v-7.4c0-1.2-0.2-2-0.7-2.6c-0.4-0.5-1.1-0.8-2.1-0.8c-1.1,0-2,0.4-2.7,1.1
		c-0.7,0.7-1,1.6-1,2.8V22c0,0.6-0.2,1-0.5,1.4c-0.4,0.3-0.8,0.5-1.4,0.5s-1.1-0.2-1.4-0.5c-0.3-0.3-0.5-0.8-0.5-1.4V10
		c0-0.5,0.2-1,0.5-1.3c0.4-0.3,0.8-0.5,1.4-0.5c0.5,0,1,0.2,1.3,0.5c0.3,0.3,0.5,0.7,0.5,1.3v0.8c0.5-0.8,1.2-1.5,2.1-2
		c0.9-0.5,1.8-0.7,2.9-0.7C132.6,8.1,133.9,8.7,134.8,9.7z"/>
        <path style="fill:#0084ff;" d="M154.3,8.7c0.4,0.3,0.5,0.8,0.5,1.3v12.2c0,2.4-0.7,4.2-2,5.4c-1.3,1.2-3.3,1.8-5.9,1.8
		c-2.3,0-4.1-0.4-5.6-1.3c-0.8-0.5-1.1-1-1.1-1.6c0-0.5,0.1-0.8,0.3-1.1c0.2-0.3,0.5-0.4,0.9-0.4c0.2,0,0.4,0,0.7,0.1
		s0.5,0.2,0.8,0.3c0.7,0.3,1.4,0.5,2,0.7c0.6,0.2,1.3,0.2,2,0.2c2.7,0,4.1-1.3,4.1-4v-2c-0.5,0.8-1.1,1.5-2,2
		c-0.9,0.5-1.9,0.7-3,0.7c-1.3,0-2.5-0.3-3.5-0.9c-1-0.6-1.8-1.5-2.4-2.7c-0.6-1.1-0.9-2.4-0.9-3.9s0.3-2.8,0.9-4s1.4-2,2.4-2.7
		s2.2-0.9,3.5-0.9c1.1,0,2.1,0.2,3,0.7c0.9,0.5,1.5,1.1,2,2V10c0-0.5,0.2-1,0.5-1.3c0.4-0.3,0.8-0.5,1.4-0.5
		C153.5,8.2,154,8.4,154.3,8.7z M150,19c0.7-0.8,1-1.9,1-3.3c0-1.4-0.3-2.5-1-3.3s-1.7-1.2-2.9-1.2c-1.2,0-2.2,0.4-2.9,1.2
		c-0.7,0.8-1.1,1.9-1.1,3.3c0,1.4,0.4,2.5,1.1,3.3c0.7,0.8,1.7,1.2,2.9,1.2C148.3,20.2,149.3,19.8,150,19z"/>
        <path style="fill:#0084ff;" d="M159.1,4.9c-0.4-0.4-0.6-0.9-0.6-1.5c0-0.6,0.2-1.1,0.6-1.5s1-0.6,1.7-0.6c0.7,0,1.2,0.2,1.7,0.6
		c0.4,0.4,0.6,0.9,0.6,1.5c0,0.6-0.2,1.1-0.6,1.5c-0.4,0.4-1,0.6-1.7,0.6C160.1,5.4,159.5,5.2,159.1,4.9z M159.4,23.4
		c-0.4-0.3-0.5-0.8-0.5-1.4V10c0-0.6,0.2-1.1,0.5-1.4c0.4-0.3,0.8-0.5,1.4-0.5c0.6,0,1,0.2,1.4,0.5s0.6,0.8,0.6,1.4v12
		c0,0.6-0.2,1.1-0.6,1.4c-0.4,0.3-0.8,0.5-1.4,0.5C160.2,23.9,159.7,23.7,159.4,23.4z"/>
        <path style="fill:#0084ff;" d="M179.6,9.7c0.9,1,1.3,2.6,1.3,4.7V22c0,0.6-0.2,1-0.5,1.4c-0.3,0.3-0.8,0.5-1.4,0.5
		s-1.1-0.2-1.4-0.5c-0.4-0.3-0.5-0.8-0.5-1.4v-7.4c0-1.2-0.2-2-0.7-2.6c-0.4-0.5-1.1-0.8-2.1-0.8c-1.1,0-2,0.4-2.7,1.1
		c-0.7,0.7-1,1.6-1,2.8V22c0,0.6-0.2,1-0.5,1.4c-0.4,0.3-0.8,0.5-1.4,0.5s-1.1-0.2-1.4-0.5c-0.3-0.3-0.5-0.8-0.5-1.4V10
		c0-0.5,0.2-1,0.5-1.3c0.4-0.3,0.8-0.5,1.4-0.5c0.5,0,1,0.2,1.3,0.5c0.3,0.3,0.5,0.7,0.5,1.3v0.8c0.5-0.8,1.2-1.5,2.1-2
		c0.9-0.5,1.8-0.7,2.9-0.7C177.3,8.1,178.7,8.7,179.6,9.7z"/>
        <path style="fill:#0084ff;" d="M197.7,19.9c0.2,0.3,0.3,0.6,0.3,1.1c0,0.6-0.4,1.2-1.1,1.6c-0.7,0.4-1.5,0.7-2.4,0.9
		c-0.9,0.2-1.7,0.4-2.5,0.4c-2.4,0-4.4-0.7-5.8-2.1c-1.4-1.4-2.1-3.3-2.1-5.8c0-1.5,0.3-2.9,0.9-4.1c0.6-1.2,1.5-2.1,2.6-2.8
		c1.1-0.7,2.4-1,3.8-1c1.4,0,2.6,0.3,3.6,0.9c1,0.6,1.8,1.4,2.4,2.5c0.6,1.1,0.8,2.4,0.8,3.9c0,0.9-0.4,1.3-1.2,1.3h-9.1
		c0.1,1.4,0.5,2.5,1.2,3.1c0.7,0.7,1.7,1,3,1c0.7,0,1.2-0.1,1.8-0.2c0.5-0.2,1.1-0.4,1.7-0.7c0.6-0.3,1.1-0.5,1.4-0.5
		C197.2,19.5,197.5,19.6,197.7,19.9z M189,11.9c-0.6,0.7-1,1.6-1.1,2.9h7c0-1.3-0.4-2.2-0.9-2.9c-0.6-0.7-1.4-1-2.4-1
		C190.4,10.9,189.6,11.2,189,11.9z"/>
    </g>
</svg>
